<?xml version="1.0" encoding="UTF-8"?>
<svg id="Capa_1" xmlns="http://www.w3.org/2000/svg" version="1.1" viewBox="0 0 1080 962">
  <!-- Generator: Adobe Illustrator 29.1.0, SVG Export Plug-In . SVG Version: 2.1.0 Build 142)  -->
  <defs>
    <style>
      .st0 {
        fill: #234bbb;
      }
    </style>
  </defs>
  <path class="st0" d="M767.31,119.2c-15.96,21.75-31.49,42.91-46.59,63.48-174.51-84.06-332.69-62.57-461.76,81.45-95.75,106.84-103.02,234.69-51.74,370.1,66.41-83.2,130.95-164.06,196.49-246.18,49.06,36.76,96.91,72.62,146.07,109.46,88.68-120.89,177.09-241.41,266.27-362.98-12.66-9.49-24.49-18.34-38.9-29.14,52.9-19.68,103.27-38.43,156.32-58.16-3.67,52.81-7.15,102.87-10.79,155.17-11.54-7.98-21.13-14.61-31.84-22.01-109.04,148.63-217.61,296.62-326.94,445.66-47.69-34.78-94.75-69.11-142.93-104.24-3.25,3.52-6.5,6.62-9.27,10.1-47,58.93-93.71,118.09-141.12,176.7-7.3,9.03-6.17,14.17,1.22,21.89,66.17,69.16,148.22,104.95,242.68,108.54,141.52,5.38,254.07-51.47,324.65-174.55,62.36-108.74,66.92-224.26,14.04-340.05-1.95-4.26-2.62-11.52-.28-14.92,14.59-21.2,30.21-41.7,45.65-62.65,92.01,120.7,125.72,368.44-58.45,553.25-171.74,172.32-434.84,165.16-610.12,10.33C64.98,664.68,40.31,400.6,181.1,219.1,314.6,47,584.99-8.29,767.31,119.2Z"/>
</svg>